<?xml version="1.0" encoding="utf-8"?>
<svg viewBox="0 0 511.999 511.999" style="enable-background:new 0 0 511.999 511.999;" xmlns="http://www.w3.org/2000/svg">
  <path style="fill: rgb(122, 218, 141);" d="M454.516,236.265L82.152,3.538c-7.176-4.485-16.218-4.721-23.617-0.621 c-7.399,4.099-11.99,11.894-11.99,20.354v232.727v232.727c0,8.46,4.591,16.254,11.992,20.356c3.516,1.949,7.401,2.917,11.281,2.917 c4.287,0,8.567-1.184,12.335-3.537l372.364-232.726c6.805-4.253,10.938-11.711,10.938-19.735c0,0,0,0,0-0.002 C465.453,247.976,461.319,240.518,454.516,236.265z"/>
  <path style="fill: rgb(102, 186, 119);" d="M58.537,509.082c3.516,1.949,7.401,2.917,11.281,2.917c4.287,0,8.567-1.184,12.335-3.537 l372.364-232.726c6.805-4.253,10.938-11.711,10.938-19.735v-0.002H46.545v232.727C46.545,497.187,51.136,504.98,58.537,509.082z"/>
  <g/>
  <g/>
  <g/>
  <g/>
  <g/>
  <g/>
  <g/>
  <g/>
  <g/>
  <g/>
  <g/>
  <g/>
  <g/>
  <g/>
  <g/>
</svg>