<?xml version="1.0" encoding="utf-8"?>
<svg id="Capa_1" enable-background="new 0 0 512 512" height="512" viewBox="0 0 512 512" width="512" xmlns="http://www.w3.org/2000/svg">
  <g>
    <g>
      <g>
        <path d="m336.794 303.189-80.795-60.28-80.795 60.28 77.295 44.626c2.166 1.25 4.834 1.25 7 0z" fill="#94d77b"/>
      </g>
      <path d="m255.999 163.248-18.077 61.092 18.077 32.12 80.795 46.729v-89.253c0-2.501-1.334-4.812-3.5-6.062z" fill="#cef49d"/>
      <path d="m175.204 213.936v89.253l80.795-46.729v-93.212l-77.295 44.626c-2.166 1.25-3.5 3.561-3.5 6.062z" fill="#b4e77a"/>
      <g fill="#eaf6ff">
        <path d="m302.774 285.037c-3.294 5.704 1.795 12.023 7.431 12.023 2.67 0 5.267-1.386 6.698-3.864 5.158-8.934-8.972-17.09-14.129-8.159z"/>
        <path d="m275.891 269.516c-3.294 5.704 1.795 12.023 7.431 12.023 2.67 0 5.267-1.386 6.698-3.864 5.157-8.933-8.972-17.091-14.129-8.159z"/>
        <path d="m236.107 269.516c-5.158-8.933-19.287-.774-14.129 8.158 5.187 8.982 19.229.674 14.129-8.158z"/>
        <path d="m195.095 293.196c5.153 8.923 19.302.801 14.129-8.158-5.159-8.931-19.287-.775-14.129 8.158z"/>
        <path d="m255.999 206.613c10.314 0 10.315-16.315 0-16.315-10.314 0-10.314 16.315 0 16.315z"/>
        <path d="m255.999 237.655c10.314 0 10.315-16.315 0-16.315-10.314 0-10.314 16.315 0 16.315z"/>
        <path d="m247.842 257.512c0 10.314 16.315 10.315 16.315 0 0-10.314-16.315-10.315-16.315 0z"/>
      </g>
    </g>
    <path d="m7.501 54.097v403.807l124.251-139.78v-124.248z" style="fill: rgb(170, 185, 233);"/>
    <path d="m116.752 177.001v157.998l15-16.874v-124.249z" style="fill: rgb(137, 159, 232);"/>
    <path d="m380.246 193.876v124.248l124.25 139.78v-403.807z" style="fill: rgb(170, 186, 233);"/>
    <path d="m479.496 82.221v347.558l25 28.125v-403.807z" style="fill: rgb(137, 159, 232);"/>
    <path d="m137.357 188.893-77.618-87.318c-.032-.036-.063-.072-.096-.108l-46.536-52.352c-2.067-2.328-5.358-3.135-8.27-2.028-2.911 1.107-4.835 3.896-4.835 7.011v111.706c-.002.094-.002.188 0 .281v182.972c-.002.098-.002.195 0 .293v108.554c0 3.114 1.924 5.903 4.835 7.011.868.33 1.77.489 2.663.489 2.102 0 4.156-.884 5.607-2.518l46.529-52.345c.046-.051.091-.101.136-.153l77.585-87.281c1.221-1.372 1.895-3.146 1.895-4.982v-124.249c-.001-1.837-.674-3.611-1.895-4.983zm-75.761 124.277v-48.737h31.593v32.618zm31.592.72v35.3c0 .325.021.645.061.959l-31.653 35.609v-55.748zm0-98.053v33.596h-31.592v-48.92zm-31.592-31.995v-57.6l31.593 35.541v37.383zm62.656 65.591h-16.063v-26.321l16.063 7.791zm-77.656 0h-31.595v-71.52l31.595 15.325zm-31.595 15h31.595v56.391l-31.595 16.12zm93.187 0h16.063v16.769l-16.063 8.196zm16.064-50.201-16.063-7.791v-27.784l16.063 18.071zm-77.656-104.865v67.199l-31.595-15.325v-87.417zm-31.595 244.416 31.595-16.12v64.971l-31.595 35.543zm93.187-20.44v-27.106l16.063-8.196v17.231z" style="fill: rgb(137, 159, 232);"/>
    <path d="m116.752 165.713v22.577l7.5 8.437v17.505l-7.5-3.638v16.671l7.5 3.638v18.529h-7.5v15h7.5v16.769l-7.5 3.827v16.839l7.5-3.827v17.231l-7.5 8.437v22.577l20.605-23.18c1.221-1.372 1.895-3.146 1.895-4.982v-124.247c0-1.837-.674-3.61-1.895-4.982z" style="fill: rgb(128, 146, 221);"/>
    <path d="m511.996 349.056v-294.959c0-3.114-1.924-5.903-4.835-7.011-2.91-1.106-6.202-.3-8.27 2.028l-124.25 139.778c-1.221 1.372-1.895 3.145-1.895 4.982v124.248c0 1.837.674 3.61 1.895 4.982l124.25 139.779c4.306 5.16 13.322 1.701 13.105-4.982v-108.552c.002-.098.002-.195 0-.293zm-93.187-35.166 31.593 16.119v55.749l-31.653-35.609c.04-.314.061-.634.061-.959v-35.3zm0-16.839v-32.618h31.593v48.737zm31.593-96.538v48.92h-31.593v-33.596zm-31.593-1.348v-37.383l31.593-35.541v57.6zm78.187 50.268h-31.595v-56.195l31.595-15.325zm-93.187 0h-16.063v-18.529l16.063-7.791zm-16.063 15h16.063v24.965l-16.063-8.196zm77.656 0h31.595v72.511l-31.595-16.12zm31.594-103.192-31.595 15.325v-67.199l31.595-35.543zm-93.187 17.415v27.784l-16.063 7.791v-17.505zm-16.063 119.385 16.063 8.196v27.106l-16.063-18.071zm77.198 104.077c.296-.806.458-1.677.458-2.586v-61.87l31.595 16.12v84.394z" style="fill: rgb(137, 159, 232);"/>
    <path d="m507.161 47.087c-2.91-1.106-6.202-.3-8.27 2.028l-19.395 21.819v22.577l17.5-19.687v87.418l-17.5 8.488v16.671l17.5-8.488v71.52h-17.5v15h17.5v72.511l-17.5-8.929v16.839l17.5 8.929v84.394l-17.5-19.688v22.578l19.395 21.819c4.306 5.159 13.322 1.701 13.105-4.982v-108.555c.002-.098.002-.196 0-.293v-294.959c0-3.114-1.924-5.903-4.835-7.01z" style="fill: rgb(127, 146, 221);"/>
  </g>
</svg>