<?xml version="1.0" encoding="utf-8"?>
<svg viewBox="0 0 512 512" xmlns="http://www.w3.org/2000/svg">
  <path d="M 457.037 -1.044 L 55.037 -1.044 C 24.71 -1.044 0.037 23.629 0.037 53.956 L 0.037 455.956 C 0.037 486.283 24.71 510.956 55.037 510.956 L 457.037 510.956 C 487.364 510.956 512.037 486.283 512.037 455.956 L 512.037 53.956 C 512.037 23.629 487.364 -1.044 457.037 -1.044 Z" style="fill: rgb(240, 142, 61);"/>
  <path d="M 457.037 -1.044 L 256.037 -1.044 L 256.037 510.956 L 457.037 510.956 C 487.364 510.956 512.037 486.283 512.037 455.956 L 512.037 53.956 C 512.037 23.629 487.364 -1.044 457.037 -1.044 Z" style="fill: rgb(208, 94, 0);"/>
  <g transform="matrix(1, 0, 0, 1, 0.036935, -1.043732)">
    <path d="m367.68 438.481-111.68-74.453-111.68 74.453c-9.968 6.645-23.32-.501-23.32-12.481v-340c0-8.284 6.716-15 15-15h240c8.284 0 15 6.716 15 15v340c0 11.98-13.352 19.126-23.32 12.481z" fill="#fff5f5"/>
  </g>
  <path d="M 376.037 69.956 L 256.037 69.956 L 256.037 362.984 L 367.716 437.437 C 377.685 444.082 391.037 436.937 391.037 424.956 L 391.037 84.956 C 391.037 76.672 384.321 69.956 376.037 69.956 Z" fill="#dfdef5"/>
</svg>