<?xml version="1.0" encoding="utf-8"?>
<svg viewBox="0 0 512 512" xmlns="http://www.w3.org/2000/svg">
  <path d="M367.504 393.812l-42.31-42.31c-5.84-5.84-5.89-15.33.02-21.24l42.59-42.31c5.88-5.81 15.35-5.81 21.18.02l42.3 42.3c5.83 5.83 5.88 15.32-.03 21.24l-42.6 42.3c-5.88 5.81-15.33 5.83-21.19-.03Z" style="fill: rgb(112, 68, 225);"/>
  <path d="M325.229 330.268c-5.92 5.91-5.87 15.4-.03 21.24l42.3 42.3c5.85 5.85 15.3 5.84 21.18.02l21.29-21.16 -63.52-63.52Z" style="fill: rgb(131, 99, 214);"/>
  <g fill="#CFD7E6">
    <path d="M136 422H75c-8.3 0-15-6.71-15-15 0-8.3 6.7-15 15-15h61c8.29 0 15 6.7 15 15 0 8.29-6.71 15-15 15Z"/>
    <path d="M166 392c-8.3 0-15-6.71-15-15V256c0-8.3 6.7-15 15-15 8.29 0 15 6.7 15 15v121c0 8.29-6.71 15-15 15Z"/>
  </g>
  <path fill="#E1E6F0" d="M473.61 287.699c-3.34-3.33-62.38-62.15-59.22-59l-301.31-152.9 -42.5 42.497c-17.701 17.4-17.701 45.9 0 63.3l191.1 191.1c17.4 18 46.64 17.23 63.3 0l95.59-95.6 31.8 31.8c5.85 5.85 15.35 5.86 21.21 0 5.86-5.86 5.86-15.36 0-21.22Z"/>
  <path fill="#F3F5F9" d="M70.6 181.599l191.1 191.1c17.4 18 46.64 17.23 63.3 0l42.49-42.5 -254.4-254.4 -42.5 42.497c-17.701 17.4-17.701 45.9 0 63.3Z"/>
  <path d="M278.42 228.69H414.4l-30-30L218.79 33.38c-17.41-17.7-45.91-17.7-63.3-.001L113.08 75.79 257.19 219.9c5.62 5.62 13.25 8.78 21.21 8.78Z" style="fill: rgb(112, 68, 225);"/>
  <path d="M293.279 283.42a15 15 0 1 0 0 30 15 15 0 1 0 0-30Z" fill="#FF5959"/>
  <path d="M45 512H15c-8.3 0-15-6.71-15-15V317c0-8.3 6.7-15 15-15h30c24.81 0 45 20.18 45 45v120c0 24.81-20.19 45-45 45Z" style="fill: rgb(112, 68, 225);"/>
  <g fill="#668CFF">
    <path d="M412.186 120a15 15 0 1 0 0 30 15 15 0 1 0 0-30Z" style="fill: rgb(102, 255, 130);"/>
    <path d="M486.39 60.79c-39.73-39.73-108.7-39.73-148.418 0 -5.86 5.85-15.36 5.85-21.22 0 -5.86-5.86-5.86-15.36 0-21.22C342.26 14.052 376.16-.01 412.17-.01c36 0 69.9 14.06 95.42 39.58 5.85 5.85 5.85 15.35 0 21.211 -5.86 5.85-15.36 5.86-21.22 0Z" style="fill: rgb(102, 255, 130);"/>
    <path d="M443.97 103.184c-16.94-17-46.65-17-63.58 0 -5.86 5.85-15.39 5.83-21.24.02 -5.86-5.86-5.86-15.36-.03-21.24 28.3-28.31 77.81-28.31 106.113 0 5.83 5.88 5.83 15.381-.03 21.24 -5.94 5.87-15.44 5.77-21.25-.03Z" style="fill: rgb(102, 255, 130);"/>
  </g>
  <path d="M166 452c-24.82 0-45-20.19-45-45 0-24.82 20.18-45 45-45 24.81 0 45 20.18 45 45 0 24.81-20.19 45-45 45Z" style="fill: rgb(112, 68, 225);"/>
  <path d="M293.279 283.42a15 15 0 1 0 0 30 15 15 0 1 0 0-30Z" fill="#FF5959"/>
</svg>