<?xml version="1.0" encoding="utf-8"?>
<svg viewBox="0 0 512 512" xmlns="http://www.w3.org/2000/svg">
  <g>
    <path d="m464.74 135.48-245.073 176.187 36.333-296.667c89.19 0 167.07 48.46 208.74 120.48z" fill="#4aca7b"/>
    <path d="m497 256c0 133.1-107.9 241-241 241s-241-107.9-241-241 107.9-241 241-241v241l208.74-120.52c20.52 35.45 32.26 76.61 32.26 120.52z" fill="#ebf6ff"/>
    <path d="m256 256v241c133.1 0 241-107.9 241-241 0-43.91-11.74-85.07-32.26-120.52z" fill="#d7e7f8"/>
    <path d="m256 210.875c-24.882 0-45.125 20.243-45.125 45.125s20.243 45.125 45.125 45.125 45.125-20.243 45.125-45.125-20.243-45.125-45.125-45.125z" fill="#496a6f"/>
    <path d="m301.125 256c0-24.882-20.243-45.125-45.125-45.125v90.25c24.882 0 45.125-20.243 45.125-45.125z" fill="#394949"/>
    <g>
      <path d="m150.577 88.379c-5.185 0-10.226-2.69-13.004-7.502l-15.063-26.089c-4.142-7.174 21.838-22.174 25.98-15l15.062 26.089c4.142 7.174 1.684 16.348-5.49 20.49-2.361 1.364-4.941 2.012-7.485 2.012z" fill="#496a6f"/>
    </g>
    <g>
      <path d="m73.363 165.565c-2.545 0-5.124-.648-7.486-2.012l-26.089-15.063c-7.174-4.142 7.825-30.124 15-25.98l26.089 15.062c7.174 4.142 9.632 13.316 5.49 20.49-2.778 4.813-7.82 7.503-13.004 7.503z" fill="#496a6f"/>
    </g>
    <g>
      <path d="m39.788 363.51 26.089-15.062c7.174-4.143 16.348-1.684 20.49 5.49s1.684 16.348-5.49 20.49l-26.089 15.062c-2.362 1.364-22.174-21.838-15-25.98z" fill="#496a6f"/>
    </g>
    <g>
      <path d="m122.51 457.212 15.062-26.089c4.141-7.175 13.315-9.634 20.49-5.49 7.174 4.142 9.632 13.316 5.49 20.49l-15.062 26.089c-2.778 4.812-30.122-7.826-25.98-15z" fill="#496a6f"/>
    </g>
    <g>
      <path d="m363.51 472.212-15.062-26.089c-4.142-7.174-1.684-16.348 5.49-20.49 7.174-4.143 16.349-1.684 20.49 5.49l15.062 26.089c4.142 7.174-23.202 19.812-25.98 15z" fill="#394949"/>
    </g>
    <g>
      <path d="m457.212 389.49-26.089-15.062c-7.174-4.142-9.632-13.316-5.49-20.49s13.315-9.634 20.49-5.49l26.089 15.062c7.174 4.142-12.638 27.344-15 25.98z" fill="#394949"/>
    </g>
    <g>
      <path d="m361.423 88.379c-2.545 0-5.124-.648-7.486-2.012-7.174-4.142-9.632-13.316-5.49-20.49l15.062-26.089c4.142-7.175 30.123 7.826 25.98 15l-15.062 26.089c-2.777 4.812-7.82 7.502-13.004 7.502z" fill="#394949"/>
    </g>
    <g>
      <path d="m75.25 271h-60.25c-8.284 0-8.284-30 0-30h60.25c8.284 0 15 6.716 15 15s-6.716 15-15 15z" fill="#496a6f"/>
    </g>
    <g>
      <path d="m241 497v-60.25c0-8.284 6.716-15 15-15s15 6.716 15 15v60.25c0 8.284-30 8.284-30 0z" fill="#496a6f"/>
    </g>
    <g>
      <path d="m497 271h-60.25c-8.284 0-15-6.716-15-15s6.716-15 15-15h60.25c8.284 0 8.284 30 0 30z" fill="#394949"/>
    </g>
    <path d="m271 497v-60.25c0-8.284-6.716-15-15-15v81.463c7.5 0 15-2.071 15-6.213z" fill="#394949"/>
    <path d="m256 512c-68.38 0-132.667-26.629-181.02-74.98-48.351-48.353-74.98-112.64-74.98-181.02s26.629-132.667 74.98-181.02c48.353-48.351 112.64-74.98 181.02-74.98s132.667 26.629 181.02 74.98c48.351 48.353 74.98 112.64 74.98 181.02s-26.629 132.667-74.98 181.02c-48.353 48.351-112.64 74.98-181.02 74.98zm0-482c-124.617 0-226 101.383-226 226s101.383 226 226 226 226-101.383 226-226-101.383-226-226-226z" fill="#394949"/>
    <path d="m482 256c0 124.617-101.383 226-226 226v30c68.38 0 132.667-26.629 181.02-74.98 48.351-48.353 74.98-112.64 74.98-181.02s-26.629-132.667-74.98-181.02c-48.353-48.351-112.64-74.98-181.02-74.98v30c124.617 0 226 101.383 226 226z" fill="#151f1f"/>
  </g>
</svg>