<?xml version="1.0" encoding="utf-8"?>
<svg viewBox="0 0 24 24" fill="none" xmlns="http://www.w3.org/2000/svg">
    <g fill="currentColor">
        <path d="m9.17 15.58c-.19 0-.38-.07-.53-.22-.29-.29-.29-.77 0-1.06l5.66-5.66c.29-.29.77-.29 1.06 0s.29.77 0 1.06l-5.66 5.66c-.14.15-.34.22-.53.22z"/>
        <path d="m14.83 15.58c-.19 0-.38-.07-.53-.22l-5.66-5.66c-.29-.29-.29-.77 0-1.06s.77-.29 1.06 0l5.66 5.66c.29.29.29.77 0 1.06-.15.15-.34.22-.53.22z"/>
        <path d="m15 22.75h-6c-5.43 0-7.75-2.32-7.75-7.75v-6c0-5.43 2.32-7.75 7.75-7.75h6c5.43 0 7.75 2.32 7.75 7.75v6c0 5.43-2.32 7.75-7.75 7.75zm-6-20c-4.61 0-6.25 1.64-6.25 6.25v6c0 4.61 1.64 6.25 6.25 6.25h6c4.61 0 6.25-1.64 6.25-6.25v-6c0-4.61-1.64-6.25-6.25-6.25z"/>
    </g>
</svg>
