<svg viewBox="0 0 512 512" xmlns="http://www.w3.org/2000/svg"><path fill="#BBDCFF" d="M75 482H15c-8.29 0-15-6.72-15-15v-61c0-8.29 6.71-15 15-15h60c8.28 0 15 6.71 15 15v61c0 8.28-6.72 15-15 15Z"/><path fill="#3E5959" d="M180 473.96v-65.29l-30-47.68H75c-8.29 0-15 6.71-15 15v121c0 8.28 6.71 15 15 15h75Z"/><path fill="#E0F4FF" d="M512 106c0 8.28-6.72 15-15 15h-60c-8.29 0-15-6.72-15-15V45c0-8.29 6.71-15 15-15h60c8.28 0 15 6.71 15 15Z"/><path fill="#537983" d="M437 0h-75l-30 35v71l30 45h75c8.28 0 15-6.72 15-15V15c0-8.29-6.72-15-15-15Z"/><path fill="#E0F4FF" d="M512 316c0 74.39-60.61 135-135 135h-91c-8.41 0-15-6.61-15-15 0-8.41 6.59-15 15-15h91c57.89 0 105-47.11 105-105 0-57.9-47.11-105-105-105H75c-41.4 0-75-33.61-75-75 0-41.4 33.6-75 75-75h151c8.4 0 15 6.59 15 15 0 8.39-6.6 15-15 15H75c-24.91 0-45 20.09-45 45 0 24.89 20.09 45 45 45h302c74.39 0 135 60.59 135 135Z"/><path fill="#BBDCFF" d="M512 316c0 74.39-60.61 135-135 135h-91c-8.41 0-15-6.61-15-15 0-8.41 6.59-15 15-15h91c57.89 0 105-47.11 105-105Z"/><path fill="#E0F4FF" d="M437 241c-41.4 0-75 33.6-75 75 0 41.39 33.6 75 75 75 41.39 0 75-33.61 75-75 0-41.4-33.61-75-75-75Zm0 120c-24.91 0-45-20.11-45-45 0-24.91 20.09-45 45-45 24.9 0 45 20.09 45 45 0 24.89-20.1 45-45 45Z"/><path fill="#BBDCFF" d="M512 316c0 41.39-33.61 75-75 75 -41.4 0-75-33.61-75-75h30c0 24.89 20.09 45 45 45 24.9 0 45-20.11 45-45Z"/><path fill="#7FE881" d="M362 151h-76c-41.36 0-75-33.65-75-75 0-20.26 7.89-40.1 22.23-54.06C246.89 7.89 265.73-.01 285.99-.01h76Z"/><path fill="#5BC980" d="M301 436c0 41.35-33.65 76-75 76h-76V361h76c20.25 0 39.09 7.89 53.05 22.23 14.04 13.66 21.94 32.5 21.94 52.76Z"/></svg>