<svg viewBox="0 0 512 512" xmlns="http://www.w3.org/2000/svg"><path fill="#60C7FF" d="M74.99 370.337L4.38 440.938c-5.86 5.85-5.86 15.35-.001 21.21l45.45 45.45c5.85 5.85 15.35 5.85 21.21 0l70.601-70.601c5.85-5.86 5.85-15.36 0-21.22l-45.46-45.46c-5.86-5.86-15.36-5.86-21.22 0Z"/><path fill="#2585FD" d="M71.062 507.6l70.6-70.601c5.85-5.86 5.85-15.36 0-21.22l-22.73-22.73 -91.82 91.81 22.72 22.72c5.85 5.85 15.35 5.85 21.21 0Z"/><path fill="#60C7FF" d="M440.93 4.39l-70.6 70.601c-5.86 5.85-5.86 15.35 0 21.21l45.45 45.45c5.85 5.85 15.35 5.85 21.21 0l70.6-70.601c5.85-5.86 5.85-15.36 0-21.22L462.13 4.37c-5.86-5.86-15.36-5.86-21.22 0Z"/><path fill="#2585FD" d="M437.006 141.66L507.6 71.059c5.85-5.86 5.85-15.36 0-21.22L484.87 27.1l-91.82 91.81 22.72 22.72c5.85 5.85 15.35 5.85 21.21 0Z"/><path fill="#142D3F" d="M63.2 190.667H47.133c-8.29 0-15-6.72-15-15 0-8.29 6.71-15 15-15H63.2c8.28 0 15 6.71 15 15 0 8.28-6.72 15-15 15Z"/><path fill="#070F15" d="M464.867 351.33h-16.07c-8.29 0-15-6.72-15-15 0-8.29 6.71-15 15-15h16.06c8.28 0 15 6.71 15 15 0 8.28-6.72 15-15 15Z"/><path fill="#142D3F" d="M175.667 78.2c-8.29 0-15-6.72-15-15V47.133c0-8.29 6.71-15 15-15 8.28 0 15 6.71 15 15V63.2c0 8.28-6.72 15-15 15Z"/><path fill="#070F15" d="M336.33 479.867c-8.29 0-15-6.72-15-15v-16.07c0-8.29 6.71-15 15-15 8.28 0 15 6.71 15 15v16.06c0 8.28-6.72 15-15 15Z"/><path fill="#142D3F" d="M85.51 106.73L74.18 95.37c-5.85-5.87-5.84-15.37.03-21.22 5.86-5.85 15.363-5.84 21.21.03l11.32 11.36c5.84 5.86 5.83 15.36-.04 21.21 -5.87 5.84-15.37 5.83-21.22-.04Z"/><path fill="#070F15" d="M416.568 437.811l-11.33-11.37c-5.85-5.87-5.84-15.37.03-21.22 5.86-5.85 15.363-5.84 21.21.03l11.32 11.36c5.84 5.86 5.83 15.36-.04 21.21 -5.87 5.84-15.36 5.83-21.22-.04Z"/><path fill="#F3F9FF" d="M232.56 188.565c-12.52-12.53-32.93-12.55-45.476.01l-56.06 56.095c-5.86 5.85-5.86 15.35 0 21.21l24.21 24.21c5.85 5.85 15.35 5.85 21.21 0l56.1-56.09c12.47-12.49 12.61-32.83 0-45.447Z"/><path fill="#E1EEFF" d="M323.438 279.44c-12.52-12.53-32.93-12.55-45.476.01l-56.06 56.09c-5.86 5.85-5.86 15.35 0 21.21l24.21 24.21c5.85 5.85 15.35 5.85 21.21 0l56.1-56.09c12.47-12.49 12.61-32.83 0-45.447Z"/><path fill="#B4EBFF" d="M120.401 437.02l-45.39-45.45c-37.281-37.24-37.328-97.548 0-134.84l34.06-34.09c5.85-5.85 15.34-5.85 21.2 0l159.05 159.052c5.86 5.86 5.85 15.37-.01 21.22 -.01 0-34.04 34.06-34.04 34.06 -37.19 37.13-97.69 37.178-134.9.02Z"/><path fill="#60C7FF" d="M255.293 437.005s34.03-34.06 34.03-34.07c5.86-5.86 5.87-15.37 0-21.23l-79.54-79.53L97.67 414.28l22.69 22.72c37.2 37.15 97.708 37.12 134.89-.02Z"/><path fill="#B4EBFF" d="M381.71 289.329L222.65 130.276c-5.87-5.87-5.86-15.38 0-21.23 0-.01 34.03-34.059 34.03-34.059 37.2-37.17 97.7-37.16 134.89-.02l45.38 45.44c37.27 37.23 37.33 97.544-.01 134.83l-34.07 34.08c-5.86 5.85-15.35 5.84-21.21-.01Z"/><path fill="#60C7FF" d="M402.92 289.337l34.06-34.09c37.33-37.29 37.27-97.6 0-134.84l-22.69-22.72 -112.11 112.1 79.52 79.52c5.85 5.85 15.34 5.85 21.2 0Z"/></svg>