<svg viewBox="0 0 512 512" xmlns="http://www.w3.org/2000/svg"><path fill="#F4F4F6" d="M457 461H55c-30.327 0-55-24.68-55-55V106c0-30.33 24.67-55 55-55h402c30.32 0 55 24.67 55 55v300c0 30.32-24.68 55-55 55Z"/><path fill="#CECEDD" d="M457 51H256v410h201c30.32 0 55-24.68 55-55V106c0-30.33-24.68-55-55-55Z"/><path fill="#FF5C5C" d="M55 81c-13.79 0-25 11.21-25 25v300c0 13.78 11.21 25 25 25h402c13.78 0 25-11.22 25-25V106c0-13.79-11.22-25-25-25Z"/><path fill="#FF3838" d="M457 81H256v350h201c13.78 0 25-11.22 25-25V106c0-13.79-11.22-25-25-25Z"/><g fill="#F4F4F6"><path d="M166.88 258.263c2.62 1.85 5.64 2.73 8.62 2.73 4.71 0 9.35-2.22 12.27-6.37l32.99-46.85 32.947 46.834c2.92 4.15 7.56 6.37 12.28 6.37 2.98 0 5.99-.89 8.61-2.74 6.77-4.77 8.4-14.13 3.63-20.899L239.09 181.71l33.18-47.11c4.77-6.78 3.14-16.13-3.63-20.91 -6.78-4.78-16.131-3.15-20.91 3.62l-27 38.31 -26.96-38.32c-4.77-6.78-14.125-8.41-20.899-3.64 -6.78 4.76-8.41 14.12-3.64 20.89l33.13 47.1 -39.19 55.62c-4.78 6.77-3.15 16.13 3.62 20.9Z"/><path d="M416 331H138.76l16.6-13.29c6.46-5.18 7.51-14.62 2.34-21.09 -5.18-6.47-14.62-7.52-21.083-2.35l-50 40c-3.56 2.84-5.63 7.15-5.63 11.71 0 4.55 2.07 8.86 5.63 11.71l50 40c2.76 2.21 6.07 3.28 9.36 3.28 4.4 0 8.76-1.93 11.72-5.63 5.17-6.47 4.12-15.91-2.35-21.09l-16.61-13.29h277.23c8.28 0 15-6.72 15-15 0-8.29-6.72-15-15-15Z"/></g><g fill="#CECEDD"><path d="M256 205.71v51.44c2.79 2.5 6.37 3.83 10.01 3.83 2.98 0 5.99-.89 8.61-2.74 6.77-4.77 8.4-14.13 3.63-20.899Z"/><path d="M268.698 113.73c-3.84-2.71-8.51-3.35-12.7-2.18v46.24l16.32-23.17c4.77-6.78 3.14-16.13-3.63-20.91Z"/><path d="M416 331H256v30h160c8.28 0 15-6.72 15-15 0-8.29-6.72-15-15-15Z"/><path d="M316 261c8.28 0 15-6.72 15-15V126c0-8.29-6.72-15-15-15 -8.29 0-15 6.71-15 15v120c0 8.28 6.71 15 15 15Z"/></g><path fill="#F4F4F6" d="M141.563 246c0-8.29-6.72-15-15-15h-35.57v-30h31.83c8.28 0 15-6.72 15-15 0-8.29-6.72-15-15-15H90.98v-30h35.56c8.28 0 15-6.72 15-15 0-8.29-6.72-15-15-15H75.97c-8.29 0-15 6.71-15 15v120c0 8.28 6.71 15 15 15h50.56c8.28 0 15-6.72 15-15Z"/><path fill="#CECEDD" d="M436 111h-66.28c-8.29 0-15 6.71-15 15 0 8.28 6.71 15 15 15h18v105c0 8.28 6.71 15 15 15 8.28 0 15-6.72 15-15V141h18.27c8.28 0 15-6.72 15-15 0-8.29-6.72-15-15-15Z"/></svg>