<svg viewBox="0 0 512 512" xmlns="http://www.w3.org/2000/svg"><path fill="#A4D9F5" d="M497 361h-60c-8.3 0-15-6.71-15-15V166c0-8.3 6.7-15 15-15h60c8.29 0 15 6.7 15 15v180c0 8.29-6.71 15-15 15Z"/><path fill="#CAE8F9" d="M75 361H15c-8.3 0-15-6.71-15-15V166c0-8.3 6.7-15 15-15h60c8.29 0 15 6.7 15 15v180c0 8.29-6.71 15-15 15Z"/><path fill="#15B7BE" d="M437 391h-60c-8.3 0-15-6.71-15-15V136c0-8.3 6.7-15 15-15h60c8.29 0 15 6.7 15 15v240c0 8.29-6.71 15-15 15Z"/><path fill="#1BD9DE" d="M135 391H75c-8.3 0-15-6.71-15-15V136c0-8.3 6.7-15 15-15h60c8.29 0 15 6.7 15 15v240c0 8.29-6.71 15-15 15Z"/><path fill="#CAE8F9" d="M377 421H135c-8.3 0-15-6.71-15-15V106c0-8.3 6.7-15 15-15h242c8.29 0 15 6.7 15 15v300c0 8.29-6.71 15-15 15Z"/><path fill="#A4D9F5" d="M377 91H256v330h121c8.29 0 15-6.71 15-15V106c0-8.3-6.71-15-15-15Z"/><g fill="#549CFF"><path d="M316 361H196c-8.3 0-15-6.71-15-15v-30c0-41.36 33.64-75 75-75 41.35 0 75 33.64 75 75v30c0 8.29-6.71 15-15 15Z"/><path d="M256 241c-24.82 0-45-20.19-45-45 0-24.82 20.18-45 45-45 24.81 0 45 20.18 45 45 0 24.81-20.19 45-45 45Z"/></g><g fill="#1689FC"><path d="M316 361c8.29 0 15-6.71 15-15v-30c0-41.36-33.65-75-75-75v120h60Z"/><path d="M301 196c0-24.82-20.19-45-45-45v90c24.81 0 45-20.19 45-45Z"/></g></svg>