<?xml version="1.0" encoding="utf-8"?>
<svg viewBox="0 0 512 512" xmlns="http://www.w3.org/2000/svg">
  <g>
    <path d="m256 512c-2.011 0-4.022-.404-5.909-1.213-2.121-.909-52.549-22.752-103.612-64.696-30.297-24.887-54.51-51.729-71.964-79.782-22.24-35.741-33.515-73.479-33.515-112.166 0-63.411 51.589-115 115-115 41.342 0 79.555 22.263 99.998 58.173 20.496-35.939 58.686-58.173 100.002-58.173 63.411 0 115 51.589 115 115 0 38.688-11.275 76.426-33.515 112.166-17.454 28.053-41.667 54.896-71.964 79.782-51.063 41.944-101.491 63.787-103.612 64.696-1.887.809-3.898 1.213-5.909 1.213z" fill="#ff405c"/>
    <path d="m356 139.143c-41.315 0-79.503 22.232-100 58.17v314.687c2.011 0 4.022-.404 5.909-1.213 2.121-.909 52.549-22.752 103.612-64.696 30.297-24.887 54.51-51.729 71.964-79.782 22.24-35.741 33.515-73.479 33.515-112.166 0-63.412-51.589-115-115-115z" fill="#c30047"/>
    <g fill="#98f9ff">
      <circle cx="256" cy="134.943" r="15"/>
      <path d="m340.853 65.091c-3.839 0-7.678-1.464-10.606-4.394-19.797-19.796-46.164-30.697-74.247-30.697s-54.45 10.901-74.246 30.697c-5.857 5.857-15.355 5.857-21.213 0s-5.858-15.355 0-21.213c25.461-25.462 59.362-39.484 95.459-39.484s69.998 14.022 95.459 39.484c5.858 5.857 5.858 15.355 0 21.213-2.929 2.929-6.769 4.394-10.606 4.394z"/>
      <path d="m298.427 107.517c-3.839 0-7.678-1.465-10.606-4.394-17.547-17.545-46.094-17.545-63.641 0-5.857 5.857-15.355 5.857-21.213 0s-5.858-15.355 0-21.213c29.242-29.242 76.824-29.242 106.066 0 5.858 5.857 5.858 15.355 0 21.213-2.929 2.929-6.767 4.394-10.606 4.394z"/>
    </g>
    <path d="m330.246 60.697c2.929 2.93 6.768 4.394 10.606 4.394s7.678-1.465 10.606-4.394c5.858-5.857 5.858-15.355 0-21.213-25.46-25.462-59.361-39.484-95.458-39.484v30c28.083 0 54.45 10.901 74.246 30.697z" fill="#5ad0f4"/>
    <path d="m287.82 103.123c2.929 2.929 6.768 4.394 10.606 4.394s7.678-1.465 10.606-4.394c5.858-5.857 5.858-15.355 0-21.213-14.62-14.621-33.826-21.931-53.032-21.931v29.986c11.523-.001 23.047 4.386 31.82 13.158z" fill="#5ad0f4"/>
    <path d="m271 134.943c0-8.284-6.716-15-15-15v30c8.284 0 15-6.716 15-15z" fill="#5ad0f4"/>
    <path d="m255.997 400.571c-5.242 0-10.137-2.745-12.859-7.282l-47.805-79.675-26.853 40.277c-2.781 4.173-7.465 6.68-12.48 6.68h-141c-8.284 0-15-6.716-15-15s6.716-15 15-15h132.973l35.547-53.32c2.852-4.278 7.721-6.796 12.837-6.676 5.141.123 9.86 2.869 12.506 7.278l44.906 74.845 48.444-113.036c2.301-5.368 7.509-8.913 13.347-9.084 5.825-.214 11.244 3.061 13.856 8.285l45.854 91.708h121.73c8.284 0 15 6.716 15 15s-6.716 15-15 15h-131c-5.682 0-10.876-3.21-13.416-8.292l-35.537-71.072-47.26 110.273c-2.219 5.177-7.151 8.675-12.771 9.057-.341.023-.681.034-1.019.034z" fill="#e6f5ff"/>
    <path d="m497 330.571h-121.729l-45.854-91.708c-2.612-5.225-8.031-8.499-13.856-8.285-5.838.171-11.046 3.716-13.347 9.084l-46.214 107.83v53.08c.337 0 .676-.012 1.016-.034 5.62-.382 10.553-3.88 12.771-9.057l47.26-110.273 35.537 71.072c2.54 5.082 7.734 8.292 13.416 8.292h131c8.284 0 15-6.716 15-15s-6.716-15.001-15-15.001z" fill="#c8eafc"/>
  </g>
</svg>