<svg viewBox="0 0 512 512" xmlns="http://www.w3.org/2000/svg"><path fill="#4BB9EC" d="M421 371H91c-8.29 0-15 6.71-15 15v60c0 8.28 6.71 15 15 15h330c8.28 0 15-6.72 15-15v-60c0-8.29-6.72-15-15-15Z"/><path fill="#0095FF" d="M421 371H256v90h165c8.28 0 15-6.72 15-15v-60c0-8.29-6.72-15-15-15Z"/><path fill="#EDF5FF" d="M497 51H15C6.71 51 0 57.71 0 66v320c0 8.28 6.716 15 15 15h482c8.28 0 15-6.72 15-15V66c0-8.29-6.72-15-15-15Z"/><path fill="#D5E8FE" d="M497 51H256v350h241c8.28 0 15-6.72 15-15V66c0-8.29-6.72-15-15-15Z"/><path fill="#00CC76" d="M414 121h-60c-24.82 0-45 20.18-45 45 0 24.81 20.18 45 45 45h.33 60c.26 0 18-45 18-45Z"/><path fill="#A5E887" d="M414 121a45 45 0 1 0 0 90 45 45 0 1 0 0-90Z"/><path fill="#00CC76" d="M414 241h-60l-28.01 45s27.4 45 27.66 45h60 .33c24.81 0 45-20.19 45-45 0-24.82-20.19-45-45-45Z"/><path fill="#A5E887" d="M354 241a45 45 0 1 0 0 90 45 45 0 1 0 0-90Z"/><path fill="#4BB9EC" d="M199.207 182.34l-66-30c-4-1.82-8.6-1.8-12.58.07l-64 30c-5.27 2.47-8.64 7.76-8.64 13.58v90c0 8.28 6.71 15 15 15h50l15-10 14.99 10h50c8.28 0 15-6.72 15-15v-90c0-5.89-3.44-11.23-8.8-13.66Z"/><path fill="#0095FF" d="M143 301v-48c0-8.29-6.72-15-15-15 -8.29 0-15 6.71-15 15v48Z"/></svg>