<?xml version="1.0" encoding="utf-8"?>
<svg viewBox="0 -.001 512.001 512.001" xmlns="http://www.w3.org/2000/svg">
  <path d="M426.64 459H85.34c-8.42 0-15.24-6.83-15.24-15.24V205.04H15.22c-6.61 0-12.46-4.26-14.5-10.54 -2.04-6.29.2-13.17 5.55-17.04L247.03 2.88c5.33-3.87 12.55-3.87 17.89-.001l240.75 174.57c5.34 3.875 7.58 10.75 5.55 17.03 -2.04 6.28-7.9 10.53-14.5 10.53H441.84v238.71c0 8.41-6.83 15.23-15.24 15.23Z" transform="translate(0 26)" style="fill: rgb(245, 245, 245);"/>
  <path d="M505.7 177.47L264.94 2.89c-2.68-1.94-5.82-2.91-8.96-2.91v459h170.65c8.41 0 15.23-6.83 15.23-15.24V205.02h54.875c6.6 0 12.45-4.26 14.49-10.54 2.03-6.29-.21-13.17-5.56-17.04Z" transform="translate(0 26)" style="fill: rgb(230, 230, 230);"/>
  <g style="" transform="matrix(4.537732, 0, 0, 4.537732, -1366.384277, -861.031555)">
    <path id="Shape" d="M 376.418 261.298 C 376.714 261.238 377.026 261.3 377.265 261.466 C 377.504 261.633 377.645 261.886 377.649 262.155 L 377.649 272.883 C 377.629 274.331 376.632 275.626 375.119 276.17 C 374.167 276.54 375.802 276.427 339.649 276.427 C 337.445 276.415 335.663 274.836 335.649 272.883 L 335.649 259.592 C 335.649 257.635 337.44 256.048 339.649 256.048 L 370.756 256.048 C 371.06 256.052 371.346 256.176 371.534 256.388 C 371.722 256.601 371.792 256.876 371.724 257.139 C 371.461 258.298 371.87 259.496 372.813 260.333 C 373.757 261.168 375.11 261.531 376.418 261.298 Z" fill="#e64c3c" style=""/>
    <g fill="#fff" transform="matrix(1, 0, 0, 0.866713, 335.648712, 241.847244)" style="">
      <path id="Shape" d="m14 36c-.5522847 0-1-.4477153-1-1v-13c0-.5522847.4477153-1 1-1s1 .4477153 1 1v13c0 .5522847-.4477153 1-1 1z"/>
      <path id="Shape" d="m22 36h-1c-.4658418.0002987-.8701857-.3211028-.975-.775l-3-13c-.1242641-.5384776.2115224-1.0757359.75-1.2s1.0757359.2115224 1.2.75l2.525 10.944 2.525-10.944c.0803848-.348334.3404973-.627323.6823557-.7318748.3418584-.1045517.7135263-.0187822.975.225s.3730291.6085408.2926443.9568748l-3 13c-.1048143.4538972-.5091582.7752987-.975.775z"/>
      <path id="Shape" d="m34 36h-5c-.5522847 0-1-.4477153-1-1v-13c0-.5522847.4477153-1 1-1s1 .4477153 1 1v12h4c.5522847 0 1 .4477153 1 1s-.4477153 1-1 1z"/>
      <path id="Shape" d="m10 36h-5c-.55228475 0-1-.4477153-1-1v-13c0-.5522847.44771525-1 1-1s1 .4477153 1 1v12h4c.5522847 0 1 .4477153 1 1s-.4477153 1-1 1z"/>
      <path id="Shape" d="m34 30h-5c-.5522847 0-1-.4477153-1-1s.4477153-1 1-1h5c.5522847 0 1 .4477153 1 1s-.4477153 1-1 1z"/>
      <path id="Shape" d="m34 23h-5c-.5522847 0-1-.4477153-1-1s.4477153-1 1-1h5c.5522847 0 1 .4477153 1 1s-.4477153 1-1 1z"/>
    </g>
    <path id="Shape" d="M 364.986 248.988 C 368.364 244.999 373.684 243.226 378.78 244.39 C 383.876 245.553 387.898 249.461 389.21 254.521 C 390.521 259.581 388.903 264.95 385.014 268.442 C 384.435 268.904 384.158 269.648 384.295 270.376 C 384.432 271.104 384.96 271.697 385.667 271.916 C 386.375 272.136 387.146 271.947 387.671 271.424 C 392.674 266.936 394.757 260.033 393.073 253.527 C 391.389 247.02 386.217 241.995 379.665 240.498 C 373.113 239.002 366.272 241.282 361.93 246.412 C 361.435 246.954 361.277 247.723 361.517 248.416 C 361.757 249.109 362.357 249.615 363.081 249.734 C 363.805 249.854 364.536 249.567 364.986 248.988 Z" style="fill: rgb(184, 143, 245);"/>
    <path id="Shape" d="M 372.143 253.177 C 374.54 251.459 377.83 251.737 379.904 253.834 C 381.978 255.931 382.221 259.224 380.477 261.602 C 380.022 262.235 379.986 263.078 380.387 263.747 C 380.721 264.326 381.323 264.7 381.991 264.743 C 382.658 264.785 383.303 264.491 383.709 263.959 C 386.62 259.997 386.218 254.506 382.76 251.011 C 379.302 247.516 373.816 247.054 369.823 249.923 C 369.271 250.34 368.976 251.012 369.042 251.7 C 369.107 252.388 369.525 252.992 370.146 253.296 C 370.782 253.63 371.55 253.584 372.143 253.177 Z" style="fill: rgb(158, 97, 250);"/>
    <circle id="Oval" cx="375.649" cy="258.048" r="2" style="fill: rgb(117, 55, 210);"/>
  </g>
</svg>