<svg viewBox="0 0 64 64" xmlns="http://www.w3.org/2000/svg">
    <g id="laboratory-science-lab-building-research">
        <path d="m46 19h12v38h-12z" style="fill: rgb(168, 168, 168);"/>
        <path d="m46 57h12v-12a12 12 0 0 1 -12 12z" style="fill: rgb(156, 156, 156);"/>
        <path d="m6 19h12v38h-12z" style="fill: rgb(168, 168, 168);"/>
        <path d="m18 7h28v50h-28z" style="fill: rgb(203, 203, 203);"/>
        <path d="m18 57h28v-28a28 28 0 0 1 -28 28z" style="fill: rgb(178, 178, 178);"/>
        <path d="m3 57h58v4h-58z" fill="#58595b"/>
        <path d="m24 43h8v14h-8z" style="fill: rgb(142, 72, 245);"/>
        <path d="m32 43h8v14h-8z" style="fill: rgb(112, 28, 237);"/>
        <g fill="#f1f2f2">
            <path d="m22 35h4v4h-4z"/>
            <path d="m30 35h4v4h-4z"/>
            <path d="m38 35h4v4h-4z"/>
            <path d="m22 27h4v4h-4z"/>
            <path d="m30 27h4v4h-4z"/>
            <path d="m38 27h4v4h-4z"/>
            <path d="m50 39h4v4h-4z"/>
            <path d="m50 47h4v4h-4z"/>
            <path d="m10 39h4v4h-4z"/>
            <path d="m10 47h4v4h-4z"/>
            <path d="m10 31h4v4h-4z"/>
            <path d="m10 22h4v4h-4z"/>
        </g>
        <path d="m60 19v-4h-14v4h12z" style="fill: rgb(88, 89, 92);"/>
        <path d="m18 15h-14v4h2 12z" style="fill: rgb(88, 89, 92);"/>
        <path d="m15 3h34v4h-34z" style="fill: rgb(112, 28, 237);"/>
        <path d="m50 31h4v4h-4z" fill="#f1f2f2"/>
        <path d="m50 23h4v4h-4z" fill="#f1f2f2"/>
        <path d="m6 57h12v-12a12 12 0 0 1 -12 12z" style="fill: rgb(156, 156, 156);"/>
        <path d="m28.649 21.937a1 1 0 0 0 1.288-.586l.506-1.351h3.114l.506 1.351a1 1 0 0 0 .937.649 1.038 1.038 0 0 0 .352-.063 1 1 0 0 0 .585-1.288l-3-8a1 1 0 0 0 -1.874 0l-3 8a1 1 0 0 0 .586 1.288zm3.351-6.089.807 2.152h-1.614z" style="fill: rgb(142, 72, 245);"/>
        <path d="m43 15a3.009 3.009 0 0 0 -3-3h-2a1 1 0 0 0 -1 1v8a1 1 0 0 0 1 1h2a3.009 3.009 0 0 0 3-3 2.974 2.974 0 0 0 -.78-2 2.974 2.974 0 0 0 .78-2zm-3 5h-1v-2h1a1 1 0 0 1 0 2zm0-4h-1v-2h1a1 1 0 0 1 0 2z" style="fill: rgb(142, 72, 245);"/>
        <path d="m22 22h4a1 1 0 0 0 0-2h-3v-7a1 1 0 0 0 -2 0v8a1 1 0 0 0 1 1z" style="fill: rgb(142, 72, 245);"/>
    </g>
    <g transform="matrix(0.034848, 0, 0, 0.034954, 46.011261, 31.701921)" style="">
        <path d="M 367.504 393.812 L 325.194 351.502 C 319.354 345.662 319.304 336.172 325.214 330.262 L 367.804 287.952 C 373.684 282.142 383.154 282.142 388.984 287.972 L 431.284 330.272 C 437.114 336.102 437.164 345.592 431.254 351.512 L 388.654 393.812 C 382.774 399.622 373.324 399.642 367.464 393.782 L 367.504 393.812 Z" style="fill: rgb(112, 68, 225);"/>
        <path d="M 325.229 330.268 C 319.309 336.178 319.359 345.668 325.199 351.508 L 367.499 393.808 C 373.349 399.658 382.799 399.648 388.679 393.828 L 409.969 372.668 L 346.449 309.148 L 325.229 330.268 Z" style="fill: rgb(131, 99, 214);"/>
        <g fill="#CFD7E6">
            <path d="M136 422H75c-8.3 0-15-6.71-15-15 0-8.3 6.7-15 15-15h61c8.29 0 15 6.7 15 15 0 8.29-6.71 15-15 15Z"/>
            <path d="M166 392c-8.3 0-15-6.71-15-15V256c0-8.3 6.7-15 15-15 8.29 0 15 6.7 15 15v121c0 8.29-6.71 15-15 15Z"/>
        </g>
        <path fill="#E1E6F0" d="M 473.61 287.699 C 470.27 284.369 411.23 225.549 414.39 228.699 L 113.08 75.799 L 70.58 118.296 C 52.879 135.696 52.879 164.196 70.58 181.596 L 261.68 372.696 C 279.08 390.696 308.32 389.926 324.98 372.696 L 420.57 277.096 L 452.37 308.896 C 458.22 314.746 467.72 314.756 473.58 308.896 C 479.44 303.036 479.44 293.536 473.58 287.676 L 473.61 287.699 Z"/>
        <path fill="#F3F5F9" d="M 70.6 181.599 L 261.7 372.699 C 279.1 390.699 308.34 389.929 325 372.699 L 367.49 330.199 L 113.09 75.799 L 70.59 118.296 C 52.889 135.696 52.889 164.196 70.59 181.596 L 70.6 181.599 Z"/>
        <path d="M 278.42 228.69 L 414.4 228.69 L 384.4 198.69 L 218.79 33.38 C 201.38 15.68 172.88 15.68 155.49 33.379 L 113.08 75.79 L 257.19 219.9 C 262.81 225.52 270.44 228.68 278.4 228.68 L 278.42 228.69 Z" style="fill: rgb(112, 68, 225);"/>
        <path d="M 293.279 283.42 C 281.732 283.42 274.515 295.92 280.289 305.92 C 282.968 310.561 287.92 313.42 293.279 313.42 C 304.826 313.42 312.043 300.92 306.269 290.92 C 303.59 286.279 298.638 283.42 293.279 283.42 Z" fill="#FF5959"/>
        <path d="M 45 512 L 15 512 C 6.7 512 0 505.29 0 497 L 0 317 C 0 308.7 6.7 302 15 302 L 45 302 C 69.81 302 90 322.18 90 347 L 90 467 C 90 491.81 69.81 512 45 512 Z" style="fill: rgb(112, 68, 225);"/>
        <g fill="#668CFF">
            <path d="M412.186 120a15 15 0 1 0 0 30 15 15 0 1 0 0-30Z" style="fill: rgb(102, 255, 130);"/>
            <path d="M486.39 60.79c-39.73-39.73-108.7-39.73-148.418 0 -5.86 5.85-15.36 5.85-21.22 0 -5.86-5.86-5.86-15.36 0-21.22C342.26 14.052 376.16-.01 412.17-.01c36 0 69.9 14.06 95.42 39.58 5.85 5.85 5.85 15.35 0 21.211 -5.86 5.85-15.36 5.86-21.22 0Z" style="fill: rgb(102, 255, 130);"/>
            <path d="M443.97 103.184c-16.94-17-46.65-17-63.58 0 -5.86 5.85-15.39 5.83-21.24.02 -5.86-5.86-5.86-15.36-.03-21.24 28.3-28.31 77.81-28.31 106.113 0 5.83 5.88 5.83 15.381-.03 21.24 -5.94 5.87-15.44 5.77-21.25-.03Z" style="fill: rgb(102, 255, 130);"/>
        </g>
        <path d="M 166 452 C 141.18 452 121 431.81 121 407 C 121 382.18 141.18 362 166 362 C 190.81 362 211 382.18 211 407 C 211 431.81 190.81 452 166 452 Z" style="fill: rgb(112, 68, 225);"/>
        <path d="M 293.279 283.42 C 281.732 283.42 274.515 295.92 280.289 305.92 C 282.968 310.561 287.92 313.42 293.279 313.42 C 304.826 313.42 312.043 300.92 306.269 290.92 C 303.59 286.279 298.638 283.42 293.279 283.42 Z" fill="#FF5959"/>
    </g>
    <g transform="matrix(0.034848, 0, 0, 0.034954, 46.061447, 11.736728)" style="">
        <path d="M 367.504 393.812 L 325.194 351.502 C 319.354 345.662 319.304 336.172 325.214 330.262 L 367.804 287.952 C 373.684 282.142 383.154 282.142 388.984 287.972 L 431.284 330.272 C 437.114 336.102 437.164 345.592 431.254 351.512 L 388.654 393.812 C 382.774 399.622 373.324 399.642 367.464 393.782 L 367.504 393.812 Z" style="fill: rgb(112, 68, 225);"/>
        <path d="M 325.229 330.268 C 319.309 336.178 319.359 345.668 325.199 351.508 L 367.499 393.808 C 373.349 399.658 382.799 399.648 388.679 393.828 L 409.969 372.668 L 346.449 309.148 L 325.229 330.268 Z" style="fill: rgb(131, 99, 214);"/>
        <g fill="#CFD7E6">
            <path d="M136 422H75c-8.3 0-15-6.71-15-15 0-8.3 6.7-15 15-15h61c8.29 0 15 6.7 15 15 0 8.29-6.71 15-15 15Z"/>
            <path d="M166 392c-8.3 0-15-6.71-15-15V256c0-8.3 6.7-15 15-15 8.29 0 15 6.7 15 15v121c0 8.29-6.71 15-15 15Z"/>
        </g>
        <path fill="#E1E6F0" d="M 473.61 287.699 C 470.27 284.369 411.23 225.549 414.39 228.699 L 113.08 75.799 L 70.58 118.296 C 52.879 135.696 52.879 164.196 70.58 181.596 L 261.68 372.696 C 279.08 390.696 308.32 389.926 324.98 372.696 L 420.57 277.096 L 452.37 308.896 C 458.22 314.746 467.72 314.756 473.58 308.896 C 479.44 303.036 479.44 293.536 473.58 287.676 L 473.61 287.699 Z"/>
        <path fill="#F3F5F9" d="M 70.6 181.599 L 261.7 372.699 C 279.1 390.699 308.34 389.929 325 372.699 L 367.49 330.199 L 113.09 75.799 L 70.59 118.296 C 52.889 135.696 52.889 164.196 70.59 181.596 L 70.6 181.599 Z"/>
        <path d="M 278.42 228.69 L 414.4 228.69 L 384.4 198.69 L 218.79 33.38 C 201.38 15.68 172.88 15.68 155.49 33.379 L 113.08 75.79 L 257.19 219.9 C 262.81 225.52 270.44 228.68 278.4 228.68 L 278.42 228.69 Z" style="fill: rgb(112, 68, 225);"/>
        <path d="M 293.279 283.42 C 281.732 283.42 274.515 295.92 280.289 305.92 C 282.968 310.561 287.92 313.42 293.279 313.42 C 304.826 313.42 312.043 300.92 306.269 290.92 C 303.59 286.279 298.638 283.42 293.279 283.42 Z" fill="#FF5959"/>
        <path d="M 45 512 L 15 512 C 6.7 512 0 505.29 0 497 L 0 317 C 0 308.7 6.7 302 15 302 L 45 302 C 69.81 302 90 322.18 90 347 L 90 467 C 90 491.81 69.81 512 45 512 Z" style="fill: rgb(112, 68, 225);"/>
        <g fill="#668CFF">
            <path d="M412.186 120a15 15 0 1 0 0 30 15 15 0 1 0 0-30Z" style="fill: rgb(102, 255, 130);"/>
            <path d="M486.39 60.79c-39.73-39.73-108.7-39.73-148.418 0 -5.86 5.85-15.36 5.85-21.22 0 -5.86-5.86-5.86-15.36 0-21.22C342.26 14.052 376.16-.01 412.17-.01c36 0 69.9 14.06 95.42 39.58 5.85 5.85 5.85 15.35 0 21.211 -5.86 5.85-15.36 5.86-21.22 0Z" style="fill: rgb(102, 255, 130);"/>
            <path d="M443.97 103.184c-16.94-17-46.65-17-63.58 0 -5.86 5.85-15.39 5.83-21.24.02 -5.86-5.86-5.86-15.36-.03-21.24 28.3-28.31 77.81-28.31 106.113 0 5.83 5.88 5.83 15.381-.03 21.24 -5.94 5.87-15.44 5.77-21.25-.03Z" style="fill: rgb(102, 255, 130);"/>
        </g>
        <path d="M 166 452 C 141.18 452 121 431.81 121 407 C 121 382.18 141.18 362 166 362 C 190.81 362 211 382.18 211 407 C 211 431.81 190.81 452 166 452 Z" style="fill: rgb(112, 68, 225);"/>
        <path d="M 293.279 283.42 C 281.732 283.42 274.515 295.92 280.289 305.92 C 282.968 310.561 287.92 313.42 293.279 313.42 C 304.826 313.42 312.043 300.92 306.269 290.92 C 303.59 286.279 298.638 283.42 293.279 283.42 Z" fill="#FF5959"/>
    </g>
</svg>
