<svg viewBox="0 0 511.998 511.998" xmlns="http://www.w3.org/2000/svg"><g fill="#91F2A1"><path d="M67.327 161.617c7.24 4.24 16.393 1.76 20.53-5.31 27.93-47.411 74.7-80.118 127.332-91.549 -4.21 4.44-5.5 11.13-2.62 16.93 3.65 7.28 12.54 10.45 20.12 6.7l60-30c5.06-2.55 8.29-7.74 8.29-13.418 0-5.69-3.23-10.869-8.3-13.42l-60-30c-7.39-3.64-16.41-.71-20.13 6.709 -3.7 7.41-.71 16.421 6.7 20.12l7.14 3.57C158.54 41.05 97.27 81.12 61.98 141.04c-4.22 7.14-1.85 16.333 5.3 20.53Z"/><path d="M444.67 350.356c-7.12-4.19-16.35-1.85-20.54 5.3 -27.94 47.411-74.707 80.118-127.332 91.54 4.2-4.45 5.5-11.14 2.61-16.93 -3.73-7.43-12.69-10.4-20.13-6.71l-60 30c-5.07 2.54-8.3 7.73-8.3 13.41s3.22 10.86 8.29 13.41l60 30c7.58 3.73 16.46.58 20.12-6.71 3.69-7.42.7-16.43-6.71-20.13l-7.15-3.58c67.83-9.12 129.1-49.19 164.4-109.11 4.21-7.15 1.84-16.34-5.31-20.54Z"/><path d="M156.32 424.121c-47.655-28.07-80.446-75.18-91.72-128.137 5.34 5.5 11.38 6.23 17.09 3.42 7.41-3.71 10.4-12.72 6.7-20.13l-30-60c-5.1-10.17-21.738-10.17-26.84 0l-30 60c-3.691 7.41-.703 16.42 6.709 20.12 7.44 3.67 16.436.73 20.12-6.71l3.57-7.14c9.119 67.84 49.18 129.11 109.1 164.4 7.24 4.24 16.393 1.76 20.53-5.31 4.21-7.15 1.84-16.34-5.31-20.54Z"/></g><path fill="#52CC7B" d="M503.7 212.568c-7.39-3.65-16.41-.72-20.13 6.7l-3.58 7.13c-9.12-67.85-49.19-129.12-109.11-164.405 -7.12-4.19-16.35-1.88-20.54 5.3 -4.22 7.14-1.85 16.333 5.3 20.53 47.41 27.92 80.12 74.696 91.55 127.332 -4.45-4.21-11.12-5.5-16.94-2.62 -7.42 3.7-10.4 12.71-6.71 20.12l30 60c2.54 5.08 7.73 8.29 13.41 8.29s10.86-3.21 13.41-8.3l30-60c3.69-7.42.7-16.43-6.71-20.13Z"/><path fill="#FFEA80" d="M255.999 390.98c-74.45 0-135-60.56-135-135 0-74.45 60.55-135 135-135 74.83 0 135 61.22 135 135 0 75.202-60.95 135-135 135Z"/><path fill="#FC6" d="M300.99 285.98c0-24.82-20.19-45-45-45 -8.262 0-15-6.73-15-15 0-8.28 6.73-15 15-15 4.74 0 9.14 2.19 12.012 6.02 5.03 6.65 14.44 7.92 21 2.95 6.62-4.98 7.93-14.39 2.95-21.006 -5.43-7.23-12.78-12.22-20.98-15.13V165.96c0-8.3-6.71-15-15-15 -8.3 0-15 6.7-15 15v17.76c-17.43 6.21-30 22.7-30 42.23 0 24.81 20.18 45 45 45 8.262 0 15 6.72 15 15 0 13.03-19.11 19.48-27.012 8.97 -5.01-6.64-14.45-7.93-21.006-2.96 -6.63 4.98-7.94 14.38-2.96 21 5.42 7.22 12.77 12.22 20.97 15.12v17.851c0 8.29 6.7 15 15 15 8.29 0 15-6.71 15-15v-17.77c17.42-6.22 30-22.71 30-42.24Z"/><path fill="#52CC7B" d="M449.974 370.893c4.21-7.15 1.84-16.34-5.31-20.54 -7.12-4.19-16.35-1.85-20.54 5.3 -27.94 47.411-74.707 80.118-127.332 91.54 4.2-4.45 5.5-11.14 2.61-16.93 -3.73-7.43-12.69-10.4-20.13-6.71l-23.3 11.64v63.54l23.29 11.64c7.57 3.73 16.46.58 20.12-6.71 3.69-7.42.7-16.43-6.71-20.13l-7.15-3.58c67.83-9.12 129.1-49.185 164.4-109.106Z"/><path fill="#FC6" d="M390.99 255.98c0-73.78-60.17-135-135-135v270c74.05 0 135-59.798 135-135Z"/><g fill="#FFA64D"><path d="M255.99 240.98v30c8.26 0 15 6.72 15 15 0 8.15-7.47 13.72-15 14.19v60.8c8.29 0 15-6.71 15-15V328.2c17.42-6.22 30-22.71 30-42.24 0-24.82-20.19-45-45-45Z"/><path d="M268.01 217.007c5.03 6.65 14.44 7.92 21 2.95 6.62-4.98 7.93-14.39 2.95-21.006 -5.43-7.23-12.78-12.22-20.98-15.13V165.97c0-8.3-6.71-15-15-15v60c4.74 0 9.14 2.19 12.01 6.02Z"/></g><path fill="#52CC7B" d="M292.7 31.56L255.99 13.2v63.54L292.7 58.38c5.06-2.55 8.29-7.74 8.29-13.418 0-5.69-3.23-10.87-8.3-13.42Z"/></svg>