<svg viewBox="0 0 512 512" xmlns="http://www.w3.org/2000/svg"><path fill="#98E5FE" d="M159.37 454.45L112 512H15c-8.28 0-15-6.72-15-15v-16.5C0 419.02 50.02 369 111.5 369c.17 0 .33 0 .5.01Z"/><path fill="#7ECAE4" d="M223 480.5V497c0 8.28-6.72 15-15 15h-96V369.01c61.25.26 111 50.18 111 111.49Z"/><path fill="#FFCCBD" d="M150.66 355.39L112 415c-39.15 0-71-31.85-71-71s31.85-71 71-71Z"/><path fill="#FFBDA9" d="M183 344c0 39.15-31.85 71-71 71V273c39.15 0 71 31.85 71 71Z"/><path fill="#DE5E90" d="M435.5 452.62L400 512h-96c-8.28 0-15-6.72-15-15v-16.5c0-61.31 49.75-111.23 111-111.49Z"/><path fill="#DC415B" d="M512 480.5V497c0 8.28-6.72 15-15 15h-97V369.01c.17-.01.33-.01.5-.01 61.48 0 111.5 50.02 111.5 111.5Z"/><path fill="#FFBDA9" d="M430.4 344L400 415c-39.15 0-71-31.85-71-71s31.85-71 71-71Z"/><path fill="#F9A58D" d="M471 344c0 39.15-31.85 71-71 71V273c39.15 0 71 31.85 71 71Z"/><path fill="#F5DA9B" d="M303 376l-9.03 7.37h-74.75L209 376c0-8.28 6.72-15 15-15h28.02c-4.42-5.88-3.98-14.26 1.37-19.61 5.86-5.85 15.36-5.85 21.22 0l24 24c2.93 2.93 4.39 6.77 4.39 10.61Z"/><g fill="#F1C96C"><path d="M303 376c0 3.84-1.46 7.68-4.39 10.61l-24 24c-2.93 2.93-6.77 4.39-10.61 4.39s-7.68-1.46-10.61-4.39c-5.35-5.35-5.79-13.73-1.37-19.61H224c-8.28 0-15-6.72-15-15Z"/><path d="M322.94 152.54L256 288c-79.4 0-144-64.6-144-144C112 64.6 176.6 0 256 0Z"/></g><path fill="#EFBA50" d="M400 144c0 79.4-64.6 144-144 144V0c79.4 0 144 64.6 144 144Z"/><g fill="#F5DA9B"><path d="M256 181.56l9.15 17.15L256 223c-7.38 0-13.5-5.34-14.75-12.36 -6.89-1.17-13.15-3.69-21.02-8.78 -6.86-4.44-9.29-13.57-5.08-20.56 4.41-7.33 13.98-9.47 21.07-4.83 7.31 4.79 9.66 5.15 19.68 5.09Z"/><path d="M256 122.64l12.82 26.08 -12.82 6.37c-10.24-3.85-20.2-8.31-27.65-14.15 -9.62-7.55-14.05-20.5-11.54-33.79 2.57-13.66 11.83-24.66 24.34-29.14C242.13 70.67 248.39 65 256 65l12.82 24.27L256 105.86c-1.6-.2-3.09-.14-4.41.26 -3.99 1.2-5.07 5.34-5.3 6.59 -.49 2.59.21 4.33.58 4.62 2.34 1.84 5.53 3.62 9.13 5.31Z"/></g><g fill="#F1C96C"><path d="M270.3 111.55c-4.48-2.61-9.8-5.15-14.3-5.69V65c8.16 0 14.79 6.52 14.98 14.64 4.85 1.68 9.5 3.79 13.65 5.99 5.12 2.7 7.88 7.86 7.88 13.09 0 3.56-1.27 7.14-3.93 10.03 -4.69 5.09-12.3 6.28-18.28 2.8Z"/><path d="M299.73 174.43c-2.73 16.25-14 29.16-28.78 34.49 -.47 7.85-6.97 14.08-14.95 14.08v-41.44c9.58-.11 13.39-7.66 14.14-12.1 .68-4.01-.08-9.34-7.51-11.97 -2.21-.78-4.42-1.58-6.63-2.4v-32.45c5.09 2.38 11.02 4.59 16.62 6.57 19.6 6.92 30.49 25.1 27.11 45.22Z"/></g></svg>