<svg viewBox="0 -.001 512 512" xmlns="http://www.w3.org/2000/svg"><path fill="#FFCEBF" d="M493.95 427.3c-.3 0-151.56 61.59-177.96 72.09 -2.41.9-3.61 1.5-3.9 1.5 -33.61 15.3-77.7 15-113.7-3.3L60.98 442.88v-162.3l85.8-12.61c15.3-4.2 30-2.7 43.19 3.9 3 1.5 117.3 58.79 124.5 62.39 .6.3 1.19.6 1.5.9 13.5 7.19 18.9 24.59 11.69 39.29 -2.7 5.4-6.9 9.9-11.7 12.6 -8.4 4.8-18.9 5.39-28.5.6 -3-1.5-55.81-27.61-55.81-27.61 -18.9-9.31-41.7-4.2-54.9 12.3 -5.41 6.59-4.2 15.89 2.39 21 6.3 5.09 15.9 4.19 21-2.41 4.5-5.4 12-7.2 18.6-4.2l55.19 27.89c8.69 4.19 18 6.3 27 6.3 1.8 0 7.19-1.2 15-3.3 42.3-11.11 156.05-45.91 156.05-45.91 15.3-5.1 31.19 2.69 37.19 16.5 6.6 11.1 1.2 31.79-15.31 39Z"/><path fill="#FFBFAB" d="M493.95 427.3c-.3 0-151.56 61.59-177.96 72.09v-81.7c42.3-11.1 156.05-45.9 156.05-45.9 15.3-5.11 31.19 2.69 37.19 16.5 6.6 11.1 1.2 31.79-15.31 39Z"/><path fill="#FFE470" d="M316 0c-74.4 0-135 61.6-135 136 0 74.39 60.6 135 135 135 74.39 0 135-60.61 135-135C451 61.6 390.39 0 316 0Z"/><path fill="#FFD400" d="M316 271V0c74.39 0 135 61.6 135 136 0 74.39-60.61 135-135 135Z"/><path fill="#FDBF00" d="M316 30c-57.9 0-105 48.1-105 106 0 57.89 47.1 105 105 105 57.89 0 105-47.11 105-105 0-57.9-47.11-106-105-106Z"/><path fill="#FF9F00" d="M421 136c0 57.89-47.11 105-105 105V30c57.89 0 105 48.1 105 106Z"/><path fill="#FFE470" d="M361 166c0 19.5-12.6 36-30 42.3v17.69c0 8.4-6.6 15-15 15 -8.41 0-15-6.6-15-15v-17.7c-17.41-6.31-30-22.81-30-42.31 0-8.41 6.59-15 15-15 8.4 0 15 6.59 15 15 0 8.4 6.59 15 15 15 8.4 0 15-6.6 15-15 0-8.41-6.6-15-15-15 -24.91 0-45-20.1-45-45 0-19.5 12.59-36 30-42.3V44.97c0-8.41 6.59-15 15-15 8.4 0 15 6.59 15 15v18.7c17.4 6.29 30 22.79 30 42.29 0 8.4-6.6 15-15 15 -8.41 0-15-6.6-15-15 0-8.41-6.6-15-15-15 -8.41 0-15 6.59-15 15 0 8.4 6.59 15 15 15 24.9 0 45 20.09 45 45Z"/><path fill="#FF4B00" d="M76 482H15c-8.29 0-15-6.72-15-15V256c0-8.29 6.71-15 15-15h31c24.85 0 45 20.14 45 45v181c0 8.28-6.72 15-15 15Z"/><g fill="#FFD400"><path d="M361 166c0 19.5-12.6 36-30 42.3v17.69c0 8.4-6.6 15-15 15v-60c8.4 0 15-6.6 15-15 0-8.41-6.6-15-15-15v-30c24.9 0 45 20.09 45 45Z"/><path d="M316 91V30c8.4 0 15 6.59 15 15v18.7c17.4 6.29 30 22.79 30 42.29 0 8.4-6.6 15-15 15 -8.41 0-15-6.6-15-15 0-8.41-6.6-15-15-15Z"/></g></svg>