<svg viewBox="0 -.5 512 512" xmlns="http://www.w3.org/2000/svg"><path fill="#FFF1B6" d="M396.32 147.74c0 65.89-53.42 119.3-119.31 119.3 -65.9 0-119.31-53.42-119.31-119.31 0-65.9 53.41-119.31 119.3-119.31s119.3 53.41 119.3 119.3Z" transform="translate(0 6)"/><g fill="#FFD422"><path d="M277.01 282.21c-74.15 0-134.48-60.33-134.48-134.48 0-74.16 60.32-134.48 134.47-134.48 74.14 0 134.47 60.32 134.47 134.47 0 74.14-60.33 134.47-134.48 134.47Zm0-238.62c-57.43 0-104.15 46.71-104.15 104.14 0 57.42 46.71 104.14 104.14 104.14 57.42 0 104.14-46.72 104.14-104.15 0-57.43-46.72-104.15-104.15-104.15Z" transform="translate(0 6)"/><path d="M286.49 134.48h-25.72c-2.95 0-5.36-2.4-5.36-5.36 0-2.95 2.4-5.36 5.35-5.36h46.23c8.375 0 15.16-6.79 15.16-15.17 0-8.38-6.8-15.17-15.17-15.17h-14.16v-7.96c0-8.375-6.79-15.17-15.17-15.17 -8.375 0-15.17 6.78-15.17 15.16v7.95h-1.75c-19.68 0-35.69 16-35.69 35.68 0 19.67 16 35.68 35.68 35.68h25.71c2.95 0 5.35 2.4 5.35 5.35 0 2.95-2.41 5.35-5.36 5.35h-45.88c-8.375 0-15.17 6.79-15.17 15.16 0 8.375 6.78 15.16 15.16 15.16h21.9v7.94c0 8.37 6.79 15.16 15.16 15.16 8.375 0 15.16-6.79 15.16-15.17v-8.54c16.65-3.01 29.32-17.61 29.32-35.11 0-19.68-16.01-35.69-35.69-35.69Z" transform="translate(0 6)"/><path d="M119.81 108.61c0 8.37-6.79 15.16-15.17 15.16H94.39v10.24c0 8.38-6.8 15.16-15.17 15.16 -8.39 0-15.17-6.79-15.17-15.17v-10.25H53.79c-8.38 0-15.17-6.8-15.17-15.17 0-8.39 6.79-15.17 15.16-15.17h10.25V83.15c0-8.38 6.78-15.17 15.16-15.17 8.37 0 15.16 6.79 15.16 15.16v10.25h10.24c8.38 0 15.16 6.78 15.16 15.16Z" transform="translate(0 6)"/><path d="M495.47 271.42c0 8.37-6.79 15.16-15.17 15.16h-10.25v10.24c0 8.38-6.8 15.16-15.17 15.16 -8.39 0-15.17-6.79-15.17-15.17v-10.25h-10.26c-8.39 0-15.17-6.8-15.17-15.17 0-8.39 6.78-15.17 15.16-15.17h10.25v-10.25c0-8.375 6.78-15.17 15.16-15.17 8.37 0 15.16 6.79 15.16 15.16v10.25h10.24c8.37 0 15.16 6.78 15.16 15.16Z" transform="translate(0 6)"/><path d="M489.67 41.08c0 8.37-6.8 15.16-15.17 15.16h-10.26v10.25c0 8.37-6.8 15.16-15.17 15.16 -8.38 0-15.17-6.8-15.17-15.17V56.22h-10.26c-8.38 0-15.17-6.8-15.17-15.17 0-8.38 6.79-15.17 15.16-15.17h10.25V15.63c0-8.38 6.79-15.17 15.16-15.17 8.375 0 15.16 6.79 15.16 15.16v10.25h10.25c8.37 0 15.16 6.79 15.16 15.16Z" transform="translate(0 6)"/></g><path fill="#4895FF" d="M107.64 351.5v133.65c0 8.37-6.8 15.16-15.17 15.16H15.16c-8.38 0-15.17-6.79-15.17-15.17V351.48c0-8.38 6.79-15.17 15.16-15.17h77.3c8.375 0 15.16 6.79 15.16 15.16Z" transform="translate(0 6)"/><path fill="#2682FF" d="M107.64 418.33v66.82c0 8.37-6.8 15.16-15.17 15.16H15.16c-8.38 0-15.17-6.79-15.17-15.17v-66.83Z" transform="translate(0 6)"/><path fill="#FED2A4" d="M490.85 423.45l-92.34 53.79c-25.94 15.1-55.5 23.08-85.51 23.08H77.29V351.48c0-34.68 26.89-57.98 66.93-57.98h23.86c27.18 0 48.15 9.89 59.03 27.88 3.6 5.96 9.68 9.52 16.23 9.52h50.53c31.54 0 53.71 31.2 43.56 60.81 -.01.01-.01.01-.01.01v.01c35.55-4.19 35.7-10.58 114.75-43.86 17.46-7.77 37.78-2.67 49.71 11.45 1.87 2.21 3.54 4.64 4.96 7.28 10.85 20.27 3.81 45.2-16.06 56.78Z" transform="translate(0 6)"/><path fill="#FFBD86" d="M490.85 423.45l-92.34 53.79c-25.94 15.1-55.5 23.08-85.51 23.08h-57.04V330.91h37.93c31.54 0 53.71 31.2 43.56 60.81 -.01.01-.01.01-.01.01v.01c35.55-4.19 35.7-10.58 114.75-43.86 17.46-7.77 37.78-2.67 49.71 11.45 1.87 2.21 3.54 4.64 4.96 7.28 10.85 20.27 3.81 45.2-16.06 56.78Z" transform="translate(0 6)"/><path fill="#FFE477" d="M396.31 147.74c0 65.89-53.42 119.3-119.31 119.3V28.42c65.89 0 119.3 53.41 119.3 119.3Z" transform="translate(0 6)"/><g transform="translate(0 6)"><g fill="#EEBF00"><path d="M277 13.26v30.33c57.42 0 104.14 46.71 104.14 104.14 0 57.41-46.72 104.14-104.15 104.14v30.33c74.15 0 134.47-60.33 134.47-134.48 0-74.16-60.33-134.48-134.48-134.48Z"/><path d="M286.5 134.48H277v30.33h9.49c2.94 0 5.34 2.39 5.34 5.35 0 2.95-2.41 5.34-5.35 5.34h-9.5v53.43c.22 0 .45.01.68.01 8.37 0 15.16-6.8 15.16-15.17v-8.54c16.65-3.02 29.32-17.61 29.32-35.11 0-19.68-16.01-35.69-35.68-35.69Z"/><path d="M307.01 123.78H277V70.34c.22-.02.45-.03.68-.03 8.37 0 15.16 6.79 15.16 15.16v7.95h14.15c8.375 0 15.16 6.78 15.16 15.16 0 8.37-6.8 15.16-15.17 15.16Z"/><path d="M119.81 108.61c0 8.37-6.79 15.16-15.17 15.16H94.39v10.24c0 8.38-6.8 15.16-15.17 15.16V68c8.37 0 15.16 6.79 15.16 15.16v10.25h10.24c8.38 0 15.16 6.78 15.16 15.16Z"/><path d="M489.67 41.08c0 8.37-6.8 15.16-15.17 15.16h-10.26v10.25c0 8.37-6.8 15.16-15.17 15.16V.47c8.375 0 15.16 6.79 15.16 15.16v10.25h10.25c8.37 0 15.16 6.79 15.16 15.16Z"/><path d="M495.47 271.42c0 8.37-6.79 15.16-15.17 15.16h-10.25v10.24c0 8.38-6.8 15.16-15.17 15.16v-81.17c8.37 0 15.16 6.79 15.16 15.16v10.25h10.24c8.37 0 15.16 6.78 15.16 15.16Z"/></g></g><path fill="#F6A96C" d="M500.92 358.23l-36.24 17.34c-.06.02-.11.05-.16.07l-73.61 32.69c-21.85 9.7-45.05 14.62-68.95 14.62H207.51c-8.38 0-15.17-6.79-15.17-15.17 0-8.38 6.79-15.17 15.16-15.17 18.51 0 34.5.07 48.44.15 122.52.71 85.38 1.82 196.25-44.86 16.98-7.56 36.65-2.94 48.69 10.3Z" transform="translate(0 6)"/><path fill="#EA9B58" d="M500.92 358.23l-36.24 17.34c-.06.02-.11.05-.16.07l-73.61 32.69c-21.85 9.7-45.05 14.62-68.95 14.62h-66.01v-30.19c122.52.71 85.38 1.82 196.25-44.86 16.98-7.56 36.65-2.94 48.69 10.3Z" transform="translate(0 6)"/></svg>