<svg viewBox="0 0 512 512" xmlns="http://www.w3.org/2000/svg"><path fill="#32D736" d="M256 0C115.3 0 0 115.3 0 256c0 140.7 115.3 256 256 256s256-115.3 256-256C512 115.3 396.7 0 256 0Z"/><path fill="#0CA656" d="M512 256c0 140.7-115.3 256-256 256V0c140.7 0 256 115.3 256 256Z"/><g fill="#CAE8F9"><path d="M436 256c0 99.3-80.7 180-180 180s-180-80.7-180-180c0-39.3 12.59-76.5 36-107.999 5.7-7.5 14.39-12.01 24-12.01 6.59 0 12.9 2.1 17.99 6 13.2 9.9 15.9 28.79 6 41.99 -15.6 21-24 45.9-24 72.001 0 66.3 53.69 120 120 120 66.3 0 120-53.7 120-120 0-26.1-8.41-51-24-72.01 -9.91-13.2-7.2-31.8 6-42 5.09-3.9 11.4-6 17.99-6 9.6 0 18.3 4.5 24 12 23.4 31.49 36 68.69 36 107.99Z"/><path d="M286 106v150c0 16.5-13.5 30-30 30s-30-13.5-30-30V106c0-16.5 13.5-30 30-30s30 13.5 30 30Z"/></g><g fill="#B7E0F6"><path d="M256 286V76c16.5 0 30 13.5 30 30v150c0 16.5-13.5 30-30 30Z"/><path d="M436 256c0 99.3-80.7 180-180 180v-60c66.3 0 120-53.7 120-120 0-26.1-8.41-51-24-72.001 -9.91-13.2-7.2-31.8 6-42 5.09-3.9 11.4-6 17.99-6 9.6 0 18.3 4.5 24 12 23.4 31.49 36 68.69 36 107.999Z"/></g></svg>