<svg viewBox="0 0 512 512" xmlns="http://www.w3.org/2000/svg"><path fill="#FD4141" d="M256 0a256 256 0 1 0 0 512 256 256 0 1 0 0-512Z"/><path fill="#BA3A46" d="M256 0c141.291 0 256 114.709 256 256s-114.709 256-256 256Z"/><g fill="#FBF2F5"><path d="M290.133 102.4c0-18.7-15.17-34.14-34.14-34.14 -18.86 0-34.14 15.27-34.14 34.13v102.4c0 18.82 15.31 34.13 34.13 34.13 18.85 0 34.13-15.28 34.13-34.14Z"/><path d="M423.08 170.36c-8.55-16.81-29.09-23.5-45.9-14.96 -16.91 8.59-23.49 29.26-15.01 45.92 8.512 16.36 13.29 34.94 13.29 54.65 0 65.94-53.53 119.46-119.47 119.46 -65.941 0-119.47-53.53-119.47-119.47 0-19.72 4.77-38.3 13.29-54.66 8.47-16.66 1.9-37.328-15.01-45.93 -16.81-8.55-37.35-1.86-45.9 14.95C75.69 196 68.25 225.1 68.25 255.95c0 103.61 84.11 187.733 187.73 187.733 103.61 0 187.73-84.12 187.73-187.74 0-30.85-7.45-59.947-20.65-85.64Z"/></g><g fill="#E6E7E9"><path d="M290.13 102.4c0-18.7-15.17-34.14-34.14-34.14v170.66c18.85 0 34.13-15.28 34.13-34.14Z"/><path d="M423.08 170.36c-8.55-16.81-29.09-23.5-45.9-14.96 -16.91 8.59-23.49 29.26-15.01 45.92 8.51 16.36 13.29 34.94 13.29 54.65 0 65.94-53.53 119.46-119.47 119.46v68.26c103.61 0 187.733-84.12 187.733-187.74 0-30.85-7.45-59.95-20.65-85.64Z"/></g></svg>