<svg viewBox="0 0 512 512" xmlns="http://www.w3.org/2000/svg"><path fill="#6E75E2" d="M361.37 248.22v150.62c0 29.04-23.62 52.66-52.65 52.66H256l-83-127.97 83-127.97h52.72c29.03 0 52.65 23.62 52.65 52.66Z"/><path fill="#6BA7FF" d="M82.78 195.56c-29.03 0-52.65 23.62-52.65 52.66v150.62c0 23.83 15.9 44.01 37.65 50.48V497c0 5.77 3.31 11.03 8.52 13.53 2.06.99 4.28 1.47 6.48 1.47 3.35 0 6.68-1.12 9.4-3.31l71.19-57.19H256V195.56Z"/><path fill="#FFB454" d="M512 75.25v241c0 36.36-25.92 66.78-60.25 73.75v107c0 6.07-3.65 11.54-9.26 13.86 -1.86.77-3.8 1.14-5.74 1.14 -3.9 0-7.74-1.52-10.61-4.39L310.04 391.5H256l-91-179.167L256 0h180.75C478.24 0 512 33.76 512 75.25Z"/><path fill="#FFDD54" d="M256 0v391.5H75.25C33.76 391.5 0 357.74 0 316.25v-241C0 33.76 33.76 0 75.25 0Z"/><g fill="#23272B"><path d="M271 301.19c.36 8.1-7.15 15-15 15l-5.67-15 5.66-15c8.41 0 14.64 6.87 15 15Z"/><path d="M316.19 135.5c0 16.08-6.26 31.19-17.63 42.56l-18.15 18.14c-5.7 5.7-8.84 13.29-8.84 21.35v23.39c0 8.28-6.71 15-15 15 -.19 0-.38 0-.57-.01l-7.22-38.74 7.21-38.74c1.01-1.19 2.08-2.35 3.2-3.47l18.15-18.14c5.7-5.71 8.84-13.29 8.84-21.35 0-16.65-13.54-30.19-30.19-30.19l-7.506-14.81 7.506-15.19c33.19 0 60.19 27 60.19 60.19Z"/></g><g fill="#414952"><path d="M256 75.31v30c-16.65 0-30.19 13.54-30.19 30.19v15.06c0 8.29-6.71 15-15 15 -8.28 0-15-6.71-15-15V135.5c0-33.19 27-60.19 60.19-60.19Z"/><path d="M241.57 217.55c0-14.5 5.09-28.21 14.43-39.09v77.47c-8.02-.3-14.43-6.9-14.43-14.99Z"/><path d="M256 286.19v30c-8.41 0-14.64-6.88-15-15 -.36-8.1 7.15-15 15-15Z"/></g></svg>