<svg viewBox="0 0 512 512" xmlns="http://www.w3.org/2000/svg"><path fill="#57555C" d="M286 90H15C6.709 90 0 83.29 0 75c0-8.3 6.7-15 15-15h271c8.29 0 15 6.7 15 15 0 8.29-6.71 15-15 15Z"/><path fill="#3C3A41" d="M497 90h-91c-8.3 0-15-6.71-15-15 0-8.3 6.7-15 15-15h91c8.29 0 15 6.7 15 15 0 8.29-6.71 15-15 15Z"/><g fill="#57555C"><path d="M106 271H15c-8.3 0-15-6.71-15-15 0-8.3 6.7-15 15-15h91c8.29 0 15 6.7 15 15 0 8.29-6.71 15-15 15Z"/><path d="M497 271H226c-8.3 0-15-6.71-15-15 0-8.3 6.7-15 15-15h271c8.29 0 15 6.7 15 15 0 8.29-6.71 15-15 15Z"/><path d="M286 452H15c-8.3 0-15-6.71-15-15 0-8.3 6.7-15 15-15h271c8.29 0 15 6.7 15 15 0 8.29-6.71 15-15 15Z"/></g><path fill="#3C3A41" d="M497 452h-91c-8.3 0-15-6.71-15-15 0-8.3 6.7-15 15-15h91c8.29 0 15 6.7 15 15 0 8.29-6.71 15-15 15Z"/><path fill="#549CFF" d="M166 331c-41.36 0-75-33.65-75-75 0-41.36 33.64-75 75-75 41.35 0 75 33.64 75 75 0 41.35-33.65 75-75 75Z"/><g fill="#3C3A41"><path d="M286 422h-30v30h30c8.29 0 15-6.71 15-15 0-8.3-6.71-15-15-15Z"/><path d="M497 241H256v30h241c8.29 0 15-6.71 15-15 0-8.3-6.71-15-15-15Z"/><path d="M286 60h-30v30h30c8.29 0 15-6.71 15-15 0-8.3-6.71-15-15-15Z"/></g><g fill="#1689FC"><path d="M346 150c-41.36 0-75-33.65-75-75 0-41.36 33.64-75 75-75 41.35 0 75 33.647 75 75 0 41.35-33.65 75-75 75Z"/><path d="M346 512c-41.36 0-75-33.65-75-75 0-41.36 33.64-75 75-75 41.35 0 75 33.64 75 75 0 41.35-33.65 75-75 75Z"/></g></svg>