<?xml version="1.0" encoding="utf-8"?>
<svg viewBox="0 0 512 512" xmlns="http://www.w3.org/2000/svg">
  <g>
    <path d="M 79.497 59.084 C 31.262 97.948 4.697 149.908 4.697 205.392 L 4.971 438.792 C 4.968 445.26 17.582 451.418 20.904 454.232 C 26.735 459.172 55.832 460.854 50.013 462.253 C 47.014 462.974 56.174 460.432 61.875 455.187 L 145.099 389.351 C 173.627 400.06 220.765 412.054 256 410.79 L 296 209.485 L 256 0 C 189.469 0 126.786 20.983 79.497 59.084 Z" fill="#f0f8ff"/>
    <path d="m432.503 59.084c-47.289-38.101-109.972-59.084-176.503-59.084v410.79c.201-.007.406-.009.606-.017 67.003-2.709 129.417-24.359 175.744-60.96 48.334-38.187 74.952-89.476 74.952-144.42.001-55.484-26.563-107.444-74.799-146.309z" fill="#e3eeff"/>
    <path d="m206.036 210.334 49.964-26.475 10-15.825-10-18.127-93.075 49.319c-5.191 2.751-8.299 8.28-7.95 14.145s4.09 10.987 9.571 13.103l91.454 35.308 10-16.107-10-16.052z" style="fill: rgb(122, 153, 255);"/>
    <path d="m309.075 155.736c7.32-3.879 10.109-12.958 6.23-20.278s-12.959-10.11-20.277-6.231l-39.028 20.681v33.952z" style="fill: rgb(88, 126, 253);"/>
    <path d="m307.454 249.488-51.454-19.865v32.158l40.649 15.693c1.776.686 3.603 1.01 5.399 1.01 6.019 0 11.698-3.65 13.996-9.602 2.985-7.727-.861-16.41-8.59-19.394z" style="fill: rgb(88, 126, 253);"/>
    <g>
      <path d="m322.052 177.045c-19.059 0-34.563-15.505-34.563-34.563s15.505-34.563 34.563-34.563 34.563 15.505 34.563 34.563-15.504 34.563-34.563 34.563z" style="fill: rgb(121, 0, 242);"/>
    </g>
    <g>
      <path d="m322.052 298.045c-19.059 0-34.563-15.505-34.563-34.563s15.505-34.563 34.563-34.563 34.563 15.505 34.563 34.563-15.504 34.563-34.563 34.563z" style="fill: rgb(121, 0, 242);"/>
    </g>
    <g>
      <path d="m149.948 247.045c-19.059 0-34.563-15.505-34.563-34.563s15.505-34.563 34.563-34.563 34.563 15.505 34.563 34.563-15.504 34.563-34.563 34.563z" style="fill: rgb(157, 82, 233);"/>
    </g>
  </g>
</svg>