<?xml version="1.0" encoding="utf-8"?>
<svg viewBox="0 0 512 512" xmlns="http://www.w3.org/2000/svg">
  <path d="M403 256c0 40.6-16.45 77.34-43.06 103.94C333.34 386.55 296.6 403 256 403l-62-149.5L256 109c40.6 0 77.34 16.45 103.94 43.06C386.55 178.66 403 215.4 403 256Z" style="fill: rgb(118, 61, 233);"/>
  <path d="M256 109v294c-40.6 0-77.34-16.45-103.94-43.06C125.45 333.34 109 296.6 109 256c0-40.6 16.45-77.34 43.06-103.94C178.66 125.45 215.4 109 256 109Z" style="fill: rgb(142, 97, 232);"/>
  <g fill="#DEDEF4">
    <path d="M271 256v60.25c0 8.28-6.72 15-15 15l-7.51-45.125 7.5-45.125c8.28 0 15 6.72 15 15Z"/>
    <path d="M271 195.75c.36 8.1-7.15 15-15 15l-3-15 3-15c8.41 0 14.64 6.87 15 15Z"/>
  </g>
  <path fill="#FF4A4A" d="M512 256c0 70.69-28.66 134.692-74.99 181.01l-84.63-84.63c24.67-24.67 39.93-58.75 39.93-96.39 0-37.65-15.26-71.73-39.93-96.39L437 74.97c46.32 46.32 74.98 110.326 74.98 181.018Z"/>
  <g fill="#F5F5FC">
    <path d="M256 241v90.25c-8.28 0-15-6.72-15-15V256c0-8.28 6.72-15 15-15Z"/>
    <path d="M256 180.75v30c-8.41 0-14.64-6.87-15-15 -.36-8.1 7.15-15 15-15Z"/>
  </g>
  <g fill="#DEDEF4">
    <path d="M437.02 437.02C390.69 483.34 326.69 512 256 512l-27-64 27-55.68c37.65 0 71.72-15.26 96.39-39.93Z"/>
    <path d="M437.02 74.98l-84.63 84.63c-24.67-24.67-58.74-39.93-96.39-39.93L225.875 58.4 256 0c70.69 0 134.69 28.66 181.02 74.98Z"/>
  </g>
  <g fill="#F5F5FC">
    <path d="M256 392.32V512c-70.69 0-134.69-28.66-181.02-74.98l84.63-84.63c24.67 24.67 58.74 39.93 96.39 39.93Z"/>
    <path d="M256 0v119.68c-37.65 0-71.72 15.26-96.39 39.93L74.98 74.98C121.31 28.66 185.31 0 256 0Z"/>
  </g>
  <path fill="#F63" d="M119.68 256c0 37.64 15.25 71.72 39.93 96.38L74.98 437C28.65 390.67-.01 326.67-.01 255.983c0-70.7 28.65-134.692 74.98-181.017l84.62 84.62c-24.68 24.66-39.93 58.74-39.93 96.388Z"/>
</svg>