<?xml version="1.0" encoding="utf-8"?>
<svg viewBox="0 0 512 512" style="enable-background:new 0 0 512 512;" xmlns="http://www.w3.org/2000/svg">
  <path style="fill:#FFD400;" d="M504.048,391.299L308.2,61.6c-10.8-19.201-30.301-30.601-52.2-30.601s-41.4,11.4-52.2,30.3 L7.692,391.6c-10.501,18.9-10.201,41.1,0.601,59.7c10.8,18.6,30.298,29.7,51.599,29.7h392.257c21.301,0,40.8-11.1,51.599-29.7 C514.549,432.699,514.849,410.5,504.048,391.299z"/>
  <path style="fill:#FDBF00;" d="M503.747,451.299c-10.8,18.6-30.298,29.7-51.599,29.7H256v-450c21.899,0,41.4,11.4,52.2,30.601 l195.848,329.7C514.849,410.5,514.549,432.699,503.747,451.299z"/>
  <g>
    <rect x="226" y="345.999" style="fill:#4A696F;" width="60" height="60"/>
    <rect x="226" y="165.999" style="fill:#4A696F;" width="60" height="150"/>
  </g>
  <g>
    <rect x="256" y="165.999" style="fill:#3E5959;" width="30" height="150"/>
    <rect x="256" y="345.999" style="fill:#3E5959;" width="30" height="60"/>
  </g>
  <g/>
  <g/>
  <g/>
  <g/>
  <g/>
  <g/>
  <g/>
  <g/>
  <g/>
  <g/>
  <g/>
  <g/>
  <g/>
  <g/>
  <g/>
</svg>